<mxfile host="65bd71144e">
    <diagram id="jcmjR9he6WQk3XWefwnu" name="Page-1">
        <mxGraphModel dx="1979" dy="1684" grid="0" gridSize="10" guides="1" tooltips="1" connect="1" arrows="1" fold="1" page="0" pageScale="1" pageWidth="827" pageHeight="1169" background="#FFFFFF" math="0" shadow="0">
            <root>
                <mxCell id="0"/>
                <mxCell id="1" parent="0"/>
                <mxCell id="83" value="&lt;font style=&quot;font-size: 18px;&quot;&gt;&lt;b&gt;Executiong&lt;/b&gt;&lt;/font&gt;&lt;div&gt;&lt;font style=&quot;font-size: 18px;&quot;&gt;&lt;b&gt;Layer&lt;/b&gt;&lt;/font&gt;&lt;/div&gt;" style="rounded=1;whiteSpace=wrap;html=1;gradientColor=#99CCFF;gradientDirection=radial;" vertex="1" parent="1">
                    <mxGeometry x="130" y="150" width="120" height="530" as="geometry"/>
                </mxCell>
                <mxCell id="84" value="&lt;b&gt;&lt;font style=&quot;font-size: 24px;&quot;&gt;Real&lt;/font&gt;&lt;/b&gt;&lt;div&gt;&lt;b&gt;&lt;font style=&quot;font-size: 24px;&quot;&gt;Twin&lt;/font&gt;&lt;/b&gt;&lt;/div&gt;&lt;div&gt;&lt;span style=&quot;font-size: 24px;&quot;&gt;&lt;b&gt;UI&lt;/b&gt;&lt;/span&gt;&lt;/div&gt;" style="rounded=1;whiteSpace=wrap;html=1;gradientDirection=radial;fillColor=default;strokeColor=#82b366;gradientColor=#009900;" vertex="1" parent="1">
                    <mxGeometry x="-60" y="152" width="120" height="530" as="geometry"/>
                </mxCell>
                <mxCell id="85" value="" style="html=1;shadow=0;dashed=0;align=center;verticalAlign=middle;shape=mxgraph.arrows2.twoWayArrow;dy=0.6;dx=35;" vertex="1" parent="1">
                    <mxGeometry x="50" y="252" width="90" height="50" as="geometry"/>
                </mxCell>
                <mxCell id="86" value="" style="html=1;shadow=0;dashed=0;align=center;verticalAlign=middle;shape=mxgraph.arrows2.twoWayArrow;dy=0.6;dx=35;" vertex="1" parent="1">
                    <mxGeometry x="50" y="382" width="90" height="50" as="geometry"/>
                </mxCell>
                <mxCell id="87" value="" style="html=1;shadow=0;dashed=0;align=center;verticalAlign=middle;shape=mxgraph.arrows2.twoWayArrow;dy=0.6;dx=35;" vertex="1" parent="1">
                    <mxGeometry x="50" y="530" width="90" height="50" as="geometry"/>
                </mxCell>
                <mxCell id="3" value="" style="rounded=1;whiteSpace=wrap;html=1;dashed=1;dashPattern=1 4;fillColor=#CCFFFF;strokeColor=#82b366;gradientColor=default;gradientDirection=west;opacity=60;" parent="1" vertex="1">
                    <mxGeometry x="370" y="150" width="300" height="530" as="geometry"/>
                </mxCell>
                <mxCell id="65" style="edgeStyle=entityRelationEdgeStyle;html=1;exitX=0.989;exitY=0.868;exitDx=0;exitDy=0;entryX=1;entryY=0.7;entryDx=0;entryDy=0;exitPerimeter=0;strokeColor=#FF8000;flowAnimation=1;" parent="1" source="3" target="37" edge="1">
                    <mxGeometry relative="1" as="geometry"/>
                </mxCell>
                <mxCell id="64" style="edgeStyle=entityRelationEdgeStyle;html=1;exitX=0.997;exitY=0.657;exitDx=0;exitDy=0;entryX=1;entryY=0.7;entryDx=0;entryDy=0;exitPerimeter=0;strokeColor=#3333FF;flowAnimation=1;" parent="1" source="3" target="36" edge="1">
                    <mxGeometry relative="1" as="geometry"/>
                </mxCell>
                <mxCell id="63" style="edgeStyle=entityRelationEdgeStyle;html=1;exitX=0.994;exitY=0.868;exitDx=0;exitDy=0;entryX=1;entryY=0.7;entryDx=0;entryDy=0;exitPerimeter=0;strokeColor=#FF8000;flowAnimation=1;" parent="1" source="3" target="36" edge="1">
                    <mxGeometry relative="1" as="geometry"/>
                </mxCell>
                <mxCell id="62" style="edgeStyle=entityRelationEdgeStyle;html=1;exitX=1.003;exitY=0.657;exitDx=0;exitDy=0;entryX=1;entryY=0.7;entryDx=0;entryDy=0;exitPerimeter=0;strokeColor=#3333FF;flowAnimation=1;" parent="1" source="3" target="38" edge="1">
                    <mxGeometry relative="1" as="geometry"/>
                </mxCell>
                <mxCell id="60" style="edgeStyle=entityRelationEdgeStyle;html=1;exitX=1.006;exitY=0.358;exitDx=0;exitDy=0;entryX=1;entryY=0.7;entryDx=0;entryDy=0;exitPerimeter=0;strokeColor=#009900;flowAnimation=1;" parent="1" source="3" target="36" edge="1">
                    <mxGeometry relative="1" as="geometry"/>
                </mxCell>
                <mxCell id="57" style="edgeStyle=entityRelationEdgeStyle;html=1;exitX=1.003;exitY=0.357;exitDx=0;exitDy=0;entryX=1;entryY=0.7;entryDx=0;entryDy=0;exitPerimeter=0;strokeColor=#009900;flowAnimation=1;" parent="1" source="3" target="35" edge="1">
                    <mxGeometry relative="1" as="geometry"/>
                </mxCell>
                <mxCell id="27" value="" style="rounded=1;whiteSpace=wrap;html=1;dashed=1;dashPattern=1 4;fillColor=#E6E6E6;" parent="1" vertex="1">
                    <mxGeometry x="966" y="150" width="130" height="530" as="geometry"/>
                </mxCell>
                <mxCell id="55" style="edgeStyle=entityRelationEdgeStyle;html=1;exitX=0.991;exitY=0.151;exitDx=0;exitDy=0;entryX=1;entryY=0.5;entryDx=0;entryDy=0;exitPerimeter=0;flowAnimation=1;" parent="1" source="3" target="33" edge="1">
                    <mxGeometry relative="1" as="geometry"/>
                </mxCell>
                <mxCell id="4" value="" style="rounded=1;whiteSpace=wrap;html=1;dashed=1;dashPattern=1 4;gradientColor=default;fillColor=#CCFFCC;gradientDirection=west;opacity=30;" parent="1" vertex="1">
                    <mxGeometry x="720" y="150" width="160" height="530" as="geometry"/>
                </mxCell>
                <mxCell id="5" value="" style="shape=cylinder;whiteSpace=wrap;html=1;boundedLbl=1;backgroundOutline=1;" parent="1" vertex="1">
                    <mxGeometry x="767" y="190" width="60" height="80" as="geometry"/>
                </mxCell>
                <mxCell id="6" value="" style="shape=cylinder;whiteSpace=wrap;html=1;boundedLbl=1;backgroundOutline=1;" parent="1" vertex="1">
                    <mxGeometry x="767" y="300" width="60" height="80" as="geometry"/>
                </mxCell>
                <mxCell id="7" value="" style="shape=cylinder;whiteSpace=wrap;html=1;boundedLbl=1;backgroundOutline=1;" parent="1" vertex="1">
                    <mxGeometry x="767" y="458" width="60" height="80" as="geometry"/>
                </mxCell>
                <mxCell id="8" value="" style="shape=cylinder;whiteSpace=wrap;html=1;boundedLbl=1;backgroundOutline=1;" parent="1" vertex="1">
                    <mxGeometry x="767" y="568" width="60" height="80" as="geometry"/>
                </mxCell>
                <mxCell id="9" value="&lt;font style=&quot;font-size: 21px;&quot;&gt;...&lt;/font&gt;" style="text;html=1;align=center;verticalAlign=middle;whiteSpace=wrap;rounded=0;" parent="1" vertex="1">
                    <mxGeometry x="767" y="394" width="60" height="30" as="geometry"/>
                </mxCell>
                <mxCell id="10" value="" style="shape=cloud;whiteSpace=wrap;html=1;" parent="1" vertex="1">
                    <mxGeometry x="970" y="173" width="120" height="120" as="geometry"/>
                </mxCell>
                <mxCell id="11" value="" style="image;aspect=fixed;perimeter=ellipsePerimeter;html=1;align=center;shadow=0;dashed=0;spacingTop=3;image=img/lib/active_directory/cluster_server.svg;" parent="1" vertex="1">
                    <mxGeometry x="1010" y="213" width="50" height="50" as="geometry"/>
                </mxCell>
                <mxCell id="16" style="edgeStyle=orthogonalEdgeStyle;curved=1;html=1;exitX=0;exitY=0.5;exitDx=0;exitDy=0;entryX=1;entryY=0.5;entryDx=0;entryDy=0;flowAnimation=1;" parent="1" source="12" target="6" edge="1">
                    <mxGeometry relative="1" as="geometry"/>
                </mxCell>
                <mxCell id="24" value="&lt;b style=&quot;color: rgb(63, 63, 63); font-size: 14px;&quot;&gt;Extracting Tool&lt;/b&gt;" style="edgeLabel;html=1;align=center;verticalAlign=middle;resizable=0;points=[];" parent="16" vertex="1" connectable="0">
                    <mxGeometry x="-0.0316" y="4" relative="1" as="geometry">
                        <mxPoint x="-8" y="-24" as="offset"/>
                    </mxGeometry>
                </mxCell>
                <mxCell id="12" value="" style="aspect=fixed;html=1;align=center;shadow=0;dashed=0;spacingTop=3;image=img/lib/active_directory/database_partition_5.svg;shape=image;labelBackgroundColor=default;verticalAlign=top;verticalLabelPosition=bottom;perimeter=ellipsePerimeter;" parent="1" vertex="1">
                    <mxGeometry x="997" y="313" width="72.97" height="54" as="geometry"/>
                </mxCell>
                <mxCell id="19" style="edgeStyle=orthogonalEdgeStyle;curved=1;html=1;exitX=0;exitY=0.5;exitDx=0;exitDy=0;entryX=1;entryY=0.5;entryDx=0;entryDy=0;flowAnimation=1;" parent="1" source="14" target="8" edge="1">
                    <mxGeometry relative="1" as="geometry"/>
                </mxCell>
                <mxCell id="26" value="&lt;b style=&quot;color: rgb(63, 63, 63); font-size: 14px;&quot;&gt;Extracting Tool&lt;/b&gt;" style="edgeLabel;html=1;align=center;verticalAlign=middle;resizable=0;points=[];" parent="19" vertex="1" connectable="0">
                    <mxGeometry x="-0.3373" y="11" relative="1" as="geometry">
                        <mxPoint x="-31" y="-30" as="offset"/>
                    </mxGeometry>
                </mxCell>
                <mxCell id="15" style="edgeStyle=orthogonalEdgeStyle;curved=1;html=1;exitX=0.07;exitY=0.4;exitDx=0;exitDy=0;exitPerimeter=0;entryX=1.05;entryY=0.388;entryDx=0;entryDy=0;entryPerimeter=0;flowAnimation=1;" parent="1" source="10" target="5" edge="1">
                    <mxGeometry relative="1" as="geometry"/>
                </mxCell>
                <mxCell id="23" value="&lt;font style=&quot;font-size: 14px; color: rgb(0, 153, 0);&quot;&gt;&lt;b&gt;Extracting Tool&lt;/b&gt;&lt;/font&gt;" style="edgeLabel;html=1;align=center;verticalAlign=middle;resizable=0;points=[];" parent="15" vertex="1" connectable="0">
                    <mxGeometry x="-0.3923" y="8" relative="1" as="geometry">
                        <mxPoint x="-26" y="-26" as="offset"/>
                    </mxGeometry>
                </mxCell>
                <mxCell id="20" style="edgeStyle=orthogonalEdgeStyle;curved=1;html=1;exitX=0.5;exitY=1;exitDx=0;exitDy=0;entryX=1;entryY=0.5;entryDx=0;entryDy=0;flowAnimation=1;" parent="1" source="17" target="7" edge="1">
                    <mxGeometry relative="1" as="geometry"/>
                </mxCell>
                <mxCell id="25" value="&lt;b style=&quot;color: rgb(63, 63, 63); font-size: 14px;&quot;&gt;Extracting Tool&lt;/b&gt;" style="edgeLabel;html=1;align=center;verticalAlign=middle;resizable=0;points=[];" parent="20" vertex="1" connectable="0">
                    <mxGeometry x="-0.102" y="12" relative="1" as="geometry">
                        <mxPoint x="-15" y="-33" as="offset"/>
                    </mxGeometry>
                </mxCell>
                <mxCell id="17" value="" style="image;aspect=fixed;perimeter=ellipsePerimeter;html=1;align=center;shadow=0;dashed=0;spacingTop=3;image=img/lib/active_directory/server_farm.svg;direction=south;" parent="1" vertex="1">
                    <mxGeometry x="998.48" y="467" width="64" height="64" as="geometry"/>
                </mxCell>
                <mxCell id="22" value="&lt;span style=&quot;color: rgb(0, 29, 53); font-family: &amp;quot;Google Sans&amp;quot;, Roboto, Arial, sans-serif; font-style: normal; font-variant-ligatures: normal; font-variant-caps: normal; font-weight: 400; letter-spacing: normal; orphans: 2; text-align: start; text-indent: 0px; text-transform: none; widows: 2; word-spacing: 0px; -webkit-text-stroke-width: 0px; white-space: normal; background-color: rgb(255, 255, 255); text-decoration-thickness: initial; text-decoration-style: initial; text-decoration-color: initial; float: none; display: inline !important;&quot;&gt;&lt;font style=&quot;font-size: 24px;&quot;&gt;ETL (Extract, Transform, Load)&amp;nbsp;&lt;/font&gt;&lt;/span&gt;" style="text;whiteSpace=wrap;html=1;" parent="1" vertex="1">
                    <mxGeometry x="120" y="-10" width="340" height="50" as="geometry"/>
                </mxCell>
                <mxCell id="28" value="" style="group" parent="1" vertex="1" connectable="0">
                    <mxGeometry x="999" y="583" width="75" height="50" as="geometry"/>
                </mxCell>
                <mxCell id="14" value="" style="image;aspect=fixed;perimeter=ellipsePerimeter;html=1;align=center;shadow=0;dashed=0;spacingTop=3;image=img/lib/active_directory/database_server.svg;" parent="28" vertex="1">
                    <mxGeometry width="41" height="50" as="geometry"/>
                </mxCell>
                <mxCell id="18" value="" style="image;aspect=fixed;perimeter=ellipsePerimeter;html=1;align=center;shadow=0;dashed=0;spacingTop=3;image=img/lib/active_directory/shadowed_router.svg;" parent="28" vertex="1">
                    <mxGeometry x="35" width="40" height="48.78" as="geometry"/>
                </mxCell>
                <mxCell id="29" value="&lt;font style=&quot;font-size: 21px;&quot;&gt;...&lt;/font&gt;" style="text;html=1;align=center;verticalAlign=middle;whiteSpace=wrap;rounded=0;" parent="1" vertex="1">
                    <mxGeometry x="1004" y="394" width="60" height="30" as="geometry"/>
                </mxCell>
                <mxCell id="31" style="edgeStyle=orthogonalEdgeStyle;curved=1;html=1;exitX=0.13;exitY=0.77;exitDx=0;exitDy=0;exitPerimeter=0;entryX=0.5;entryY=0.5;entryDx=0;entryDy=0;entryPerimeter=0;flowAnimation=1;" parent="1" source="10" target="6" edge="1">
                    <mxGeometry relative="1" as="geometry"/>
                </mxCell>
                <mxCell id="32" style="edgeStyle=orthogonalEdgeStyle;curved=1;html=1;exitX=0.75;exitY=1;exitDx=0;exitDy=0;entryX=0.55;entryY=0.525;entryDx=0;entryDy=0;entryPerimeter=0;flowAnimation=1;" parent="1" source="17" target="8" edge="1">
                    <mxGeometry relative="1" as="geometry"/>
                </mxCell>
                <mxCell id="33" value="" style="shape=datastore;whiteSpace=wrap;html=1;" parent="1" vertex="1">
                    <mxGeometry x="520" y="190" width="60" height="130" as="geometry"/>
                </mxCell>
                <mxCell id="34" value="" style="shape=datastore;whiteSpace=wrap;html=1;" parent="1" vertex="1">
                    <mxGeometry x="500" y="250" width="60" height="130" as="geometry"/>
                </mxCell>
                <mxCell id="35" value="" style="shape=datastore;whiteSpace=wrap;html=1;" parent="1" vertex="1">
                    <mxGeometry x="470" y="320" width="70" height="130" as="geometry"/>
                </mxCell>
                <mxCell id="36" value="" style="shape=datastore;whiteSpace=wrap;html=1;" parent="1" vertex="1">
                    <mxGeometry x="460" y="394" width="60" height="130" as="geometry"/>
                </mxCell>
                <mxCell id="37" value="" style="shape=datastore;whiteSpace=wrap;html=1;" parent="1" vertex="1">
                    <mxGeometry x="440" y="467" width="60" height="130" as="geometry"/>
                </mxCell>
                <mxCell id="38" value="" style="shape=datastore;whiteSpace=wrap;html=1;" parent="1" vertex="1">
                    <mxGeometry x="420" y="531" width="60" height="130" as="geometry"/>
                </mxCell>
                <mxCell id="51" style="edgeStyle=none;html=1;exitX=0;exitY=0.5;exitDx=0;exitDy=0;entryX=1.006;entryY=0.151;entryDx=0;entryDy=0;entryPerimeter=0;flowAnimation=1;" parent="1" source="5" target="3" edge="1">
                    <mxGeometry relative="1" as="geometry"/>
                </mxCell>
                <mxCell id="66" value="&lt;b style=&quot;font-size: 14px;&quot;&gt;Transforming Tool&lt;/b&gt;" style="edgeLabel;html=1;align=center;verticalAlign=middle;resizable=0;points=[];" parent="51" vertex="1" connectable="0">
                    <mxGeometry x="0.3067" y="2" relative="1" as="geometry">
                        <mxPoint x="-15" y="-26" as="offset"/>
                    </mxGeometry>
                </mxCell>
                <mxCell id="52" style="edgeStyle=none;html=1;exitX=0;exitY=0.5;exitDx=0;exitDy=0;entryX=1.006;entryY=0.358;entryDx=0;entryDy=0;entryPerimeter=0;strokeColor=#009900;flowAnimation=1;" parent="1" source="6" target="3" edge="1">
                    <mxGeometry relative="1" as="geometry"/>
                </mxCell>
                <mxCell id="67" value="&lt;b style=&quot;font-size: 14px;&quot;&gt;Transforming Tool&lt;/b&gt;" style="edgeLabel;html=1;align=center;verticalAlign=middle;resizable=0;points=[];" parent="52" vertex="1" connectable="0">
                    <mxGeometry x="-0.157" relative="1" as="geometry">
                        <mxPoint x="-37" y="-20" as="offset"/>
                    </mxGeometry>
                </mxCell>
                <mxCell id="53" style="edgeStyle=none;html=1;exitX=0;exitY=0.5;exitDx=0;exitDy=0;entryX=0.999;entryY=0.657;entryDx=0;entryDy=0;entryPerimeter=0;strokeColor=#3333FF;flowAnimation=1;" parent="1" source="7" target="3" edge="1">
                    <mxGeometry relative="1" as="geometry"/>
                </mxCell>
                <mxCell id="68" value="&lt;b style=&quot;font-size: 14px;&quot;&gt;Transforming Tool&lt;/b&gt;" style="edgeLabel;html=1;align=center;verticalAlign=middle;resizable=0;points=[];" parent="53" vertex="1" connectable="0">
                    <mxGeometry x="-0.1988" relative="1" as="geometry">
                        <mxPoint x="-38" y="-19" as="offset"/>
                    </mxGeometry>
                </mxCell>
                <mxCell id="54" style="edgeStyle=none;html=1;exitX=0;exitY=0.5;exitDx=0;exitDy=0;entryX=0.995;entryY=0.866;entryDx=0;entryDy=0;entryPerimeter=0;strokeColor=#FF8000;flowAnimation=1;" parent="1" source="8" target="3" edge="1">
                    <mxGeometry relative="1" as="geometry"/>
                </mxCell>
                <mxCell id="69" value="&lt;b style=&quot;font-size: 14px;&quot;&gt;Transforming Tool&lt;/b&gt;" style="edgeLabel;html=1;align=center;verticalAlign=middle;resizable=0;points=[];" parent="54" vertex="1" connectable="0">
                    <mxGeometry x="0.0334" y="2" relative="1" as="geometry">
                        <mxPoint x="-26" y="-22" as="offset"/>
                    </mxGeometry>
                </mxCell>
                <mxCell id="56" style="edgeStyle=entityRelationEdgeStyle;html=1;exitX=1.011;exitY=0.151;exitDx=0;exitDy=0;entryX=1;entryY=0.7;entryDx=0;entryDy=0;exitPerimeter=0;flowAnimation=1;" parent="1" source="3" target="34" edge="1">
                    <mxGeometry relative="1" as="geometry"/>
                </mxCell>
                <mxCell id="72" value="&lt;font style=&quot;font-size: 18px;&quot;&gt;Signal&lt;/font&gt;" style="text;html=1;align=center;verticalAlign=middle;whiteSpace=wrap;rounded=0;" parent="1" vertex="1">
                    <mxGeometry x="460" y="437" width="60" height="30" as="geometry"/>
                </mxCell>
                <mxCell id="74" value="&lt;font style=&quot;font-size: 16px;&quot;&gt;Demand&lt;/font&gt;" style="text;html=1;align=center;verticalAlign=middle;whiteSpace=wrap;rounded=0;" parent="1" vertex="1">
                    <mxGeometry x="476" y="364" width="60" height="30" as="geometry"/>
                </mxCell>
                <mxCell id="75" value="&lt;font style=&quot;font-size: 18px;&quot;&gt;Spatial&lt;/font&gt;&lt;div&gt;&lt;font style=&quot;font-size: 18px;&quot;&gt;GIS&lt;/font&gt;&lt;/div&gt;" style="text;html=1;align=center;verticalAlign=middle;whiteSpace=wrap;rounded=0;" parent="1" vertex="1">
                    <mxGeometry x="420" y="594" width="60" height="30" as="geometry"/>
                </mxCell>
                <mxCell id="76" value="&lt;font style=&quot;font-size: 18px;&quot;&gt;Config&lt;/font&gt;" style="text;html=1;align=center;verticalAlign=middle;whiteSpace=wrap;rounded=0;" parent="1" vertex="1">
                    <mxGeometry x="520" y="190" width="60" height="30" as="geometry"/>
                </mxCell>
                <mxCell id="78" value="Request" style="html=1;shadow=0;dashed=0;align=center;verticalAlign=middle;shape=mxgraph.arrows2.jumpInArrow;dy=15;dx=38;arrowHead=85.64;rotation=15;" vertex="1" parent="1">
                    <mxGeometry x="221.7" y="185.06" width="190" height="100" as="geometry"/>
                </mxCell>
                <mxCell id="79" value="" style="html=1;shadow=0;dashed=0;align=center;verticalAlign=middle;shape=mxgraph.arrows2.jumpInArrow;dy=15;dx=38;arrowHead=85.64;rotation=-165;" vertex="1" parent="1">
                    <mxGeometry x="210" y="266" width="190" height="100" as="geometry"/>
                </mxCell>
                <mxCell id="80" value="Request" style="html=1;shadow=0;dashed=0;align=center;verticalAlign=middle;shape=mxgraph.arrows2.jumpInArrow;dy=15;dx=38;arrowHead=85.64;rotation=15;" vertex="1" parent="1">
                    <mxGeometry x="210" y="424" width="190" height="100" as="geometry"/>
                </mxCell>
                <mxCell id="81" value="" style="html=1;shadow=0;dashed=0;align=center;verticalAlign=middle;shape=mxgraph.arrows2.jumpInArrow;dy=15;dx=38;arrowHead=85.64;rotation=-165;" vertex="1" parent="1">
                    <mxGeometry x="198.3" y="504.94" width="190" height="100" as="geometry"/>
                </mxCell>
            </root>
        </mxGraphModel>
    </diagram>
</mxfile>